<svg width="356" height="604" viewBox="0 0 356 604" fill="none" xmlns="http://www.w3.org/2000/svg">
<path d="M29.303 576.504H56.631V603H45.367L44.023 591.672C42.743 595.725 40.4603 598.733 37.175 600.696C33.8897 602.659 29.879 603.64 25.143 603.64C20.8337 603.64 16.9937 602.68 13.623 600.76C10.295 598.84 7.671 596.088 5.751 592.504C3.87367 588.92 2.935 584.739 2.935 579.96C2.935 572.323 5.21767 566.285 9.783 561.848C14.3483 557.411 21.4523 555.192 31.095 555.192C36.599 555.192 41.4417 556.088 45.623 557.88C49.847 559.672 53.431 562.445 56.375 566.2C54.455 567.181 50.7003 569.144 45.111 572.088L43.511 572.984C41.847 571.32 39.9057 570.083 37.687 569.272C35.4683 568.419 33.1217 567.992 30.647 567.992C26.551 567.992 23.5003 569.08 21.495 571.256C19.4897 573.389 18.487 576.035 18.487 579.192C18.487 582.605 19.5537 585.357 21.687 587.448C23.863 589.539 27.1697 590.584 31.607 590.584C33.527 590.584 35.383 590.307 37.175 589.752C39.0097 589.197 40.5457 588.237 41.783 586.872H29.303V576.504ZM82.3555 603.64C75.0595 603.64 69.6835 601.976 66.2275 598.648C62.8142 595.277 61.1075 590.861 61.1075 585.4C61.1075 580.067 62.8142 575.736 66.2275 572.408C69.6835 569.08 75.0595 567.416 82.3555 567.416C87.2622 567.416 91.3582 568.227 94.6435 569.848C97.9715 571.427 100.425 573.581 102.004 576.312C103.582 579 104.372 582.029 104.372 585.4C104.372 590.904 102.537 595.32 98.8675 598.648C95.2408 601.976 89.7368 603.64 82.3555 603.64ZM82.6115 592.76C85.3848 592.76 87.4542 592.099 88.8195 590.776C90.1848 589.453 90.8675 587.683 90.8675 585.464C90.8675 583.373 90.1848 581.667 88.8195 580.344C87.4542 578.979 85.3848 578.296 82.6115 578.296C79.8382 578.296 77.8115 578.957 76.5315 580.28C75.2515 581.603 74.6115 583.331 74.6115 585.464C74.6115 587.683 75.2515 589.453 76.5315 590.776C77.8115 592.099 79.8382 592.76 82.6115 592.76ZM160.265 572.024C160.265 575.736 159.347 578.872 157.513 581.432C155.721 583.992 152.627 585.848 148.233 587C148.745 587.683 149.107 588.216 149.321 588.6L159.689 603H142.281C140.403 599.501 137.438 594.552 133.385 588.152H123.977V603H108.873C109.214 594.723 109.385 586.979 109.385 579.768C109.385 572.557 109.214 564.813 108.873 556.536H123.977V556.6H137.097C145.715 556.6 151.731 557.987 155.145 560.76C158.558 563.533 160.265 567.288 160.265 572.024ZM123.977 568.888V576.184H132.617C136.243 576.184 138.974 576.077 140.809 575.864C142.686 575.608 143.987 575.224 144.713 574.712C145.438 574.2 145.801 573.453 145.801 572.472C145.801 571.533 145.459 570.808 144.777 570.296C144.094 569.784 142.814 569.421 140.937 569.208C139.059 568.995 136.286 568.888 132.617 568.888H123.977ZM196.041 587H175.177C175.518 588.877 176.35 590.413 177.673 591.608C179.038 592.76 180.958 593.336 183.433 593.336C185.225 593.336 186.91 592.995 188.489 592.312C190.068 591.587 191.326 590.584 192.265 589.304C195.124 590.712 198.921 592.227 203.657 593.848C202.334 596.835 199.924 599.224 196.425 601.016C192.969 602.765 188.446 603.64 182.857 603.64C175.604 603.64 170.228 601.976 166.729 598.648C163.273 595.277 161.545 590.861 161.545 585.4C161.545 580.067 163.273 575.736 166.729 572.408C170.185 569.08 175.561 567.416 182.857 567.416C187.209 567.416 190.985 568.141 194.185 569.592C197.385 571.043 199.838 573.069 201.545 575.672C203.252 578.232 204.105 581.176 204.105 584.504C204.105 585.613 204.062 586.445 203.977 587H196.041ZM183.753 577.08C181.62 577.08 179.87 577.485 178.505 578.296C177.14 579.107 176.18 580.216 175.625 581.624H190.729C190.217 580.259 189.385 579.171 188.233 578.36C187.081 577.507 185.588 577.08 183.753 577.08ZM248.11 568.056C243.502 580.472 239.406 592.12 235.822 603H215.79C211.95 591.352 207.832 579.704 203.438 568.056H218.478L225.902 594.424L233.262 568.056H248.11ZM287.869 569.272C282.792 569.016 279.037 568.867 276.605 568.824V590.712C279.08 590.669 282.834 590.52 287.869 590.264V603H250.685V590.264C255.592 590.52 259.325 590.669 261.885 590.712V568.824C259.325 568.867 255.592 569.016 250.685 569.272V556.536H287.869V569.272ZM310.982 592.248C314.48 592.163 317.958 592.035 321.414 591.864C325.68 591.693 328.816 591.587 330.822 591.544C330.48 593.805 330.31 597.624 330.31 603H293.382V592.248C295.216 591.224 297.2 589.965 299.334 588.472C301.467 586.979 304.219 585.016 307.59 582.584C309.382 581.219 310.875 580.131 312.07 579.32C309.168 579.363 305.243 579.512 300.294 579.768C296.923 579.939 294.619 580.045 293.382 580.088C293.382 574.456 293.254 570.445 292.998 568.056H330.31V578.808C327.664 580.557 324.571 582.712 321.03 585.272C315.867 588.941 312.518 591.267 310.982 592.248ZM344.511 564.28C341.823 564.28 339.818 563.619 338.495 562.296C337.215 560.973 336.575 559.245 336.575 557.112C336.575 555.021 337.215 553.293 338.495 551.928C339.818 550.563 341.823 549.88 344.511 549.88C347.071 549.88 349.034 550.584 350.399 551.992C351.764 553.357 352.447 555.064 352.447 557.112C352.447 559.245 351.786 560.973 350.463 562.296C349.14 563.619 347.156 564.28 344.511 564.28ZM337.087 603C337.386 596.131 337.535 590.456 337.535 585.976C337.535 580.643 337.364 574.669 337.023 568.056H352.383C352.042 574.413 351.871 580.387 351.871 585.976C351.871 590.669 352.02 596.344 352.319 603H337.087Z" fill="#001F52"/>
<path d="M115.5 234.5L112.646 233.576L112.14 235.137L113.182 236.405L115.5 234.5ZM233 377.5L234.522 380.085L237.545 378.306L235.318 375.595L233 377.5ZM71.3307 469.195L38.2129 472.074L55.7871 501.926L74.3746 474.366L71.3307 469.195ZM64.022 480.46L74.3553 474.377L71.3114 469.206L60.978 475.29L64.022 480.46ZM84.6886 468.294L95.022 462.21L91.978 457.04L81.6447 463.123L84.6886 468.294ZM105.355 456.127L115.689 450.044L112.645 444.873L102.311 450.956L105.355 456.127ZM126.022 443.96L136.355 437.877L133.311 432.706L122.978 438.79L126.022 443.96ZM146.689 431.794L157.022 425.71L153.978 420.54L143.645 426.623L146.689 431.794ZM167.355 419.627L177.689 413.544L174.645 408.373L164.311 414.456L167.355 419.627ZM188.022 407.46L198.355 401.377L195.311 396.206L184.978 402.29L188.022 407.46ZM208.689 395.294L219.022 389.21L215.978 384.04L205.645 390.123L208.689 395.294ZM229.355 383.127L234.522 380.085L231.478 374.915L226.311 377.956L229.355 383.127ZM235.318 375.595L231.646 371.127L227.01 374.936L230.682 379.405L235.318 375.595ZM224.302 362.189L216.959 353.252L212.323 357.061L219.666 365.998L224.302 362.189ZM209.615 344.314L202.271 335.377L197.635 339.186L204.979 348.123L209.615 344.314ZM194.927 326.439L187.584 317.502L182.948 321.311L190.291 330.248L194.927 326.439ZM180.24 308.564L172.896 299.627L168.26 303.436L175.604 312.373L180.24 308.564ZM165.552 290.689L158.209 281.752L153.573 285.561L160.916 294.498L165.552 290.689ZM150.865 272.814L143.521 263.877L138.885 267.686L146.229 276.623L150.865 272.814ZM136.177 254.939L128.834 246.002L124.198 249.811L131.541 258.748L136.177 254.939ZM121.49 237.064L117.818 232.595L113.182 236.405L116.854 240.873L121.49 237.064ZM118.354 235.424L120.193 229.746L114.485 227.897L112.646 233.576L118.354 235.424ZM123.872 218.389L127.55 207.032L121.842 205.183L118.164 216.54L123.872 218.389ZM131.229 195.674L134.908 184.317L129.2 182.468L125.521 193.826L131.229 195.674ZM138.586 172.96L142.265 161.603L136.557 159.754L132.878 171.111L138.586 172.96ZM145.943 150.246L149.622 138.889L143.914 137.04L140.235 148.397L145.943 150.246ZM153.3 127.532L156.979 116.174L151.271 114.326L147.592 125.683L153.3 127.532ZM160.658 104.817L164.336 93.4601L158.628 91.6113L154.95 102.968L160.658 104.817ZM168.015 82.103L169.854 76.4244L164.146 74.5756L162.307 80.2541L168.015 82.103ZM115.5 234.5L112.646 233.576L112.14 235.137L113.182 236.405L115.5 234.5ZM233 377.5L234.522 380.085L237.545 378.306L235.318 375.595L233 377.5ZM71.3307 469.195L38.2129 472.074L55.7871 501.926L74.3746 474.366L71.3307 469.195ZM64.022 480.46L74.3553 474.377L71.3114 469.206L60.978 475.29L64.022 480.46ZM84.6886 468.294L95.022 462.21L91.978 457.04L81.6447 463.123L84.6886 468.294ZM105.355 456.127L115.689 450.044L112.645 444.873L102.311 450.956L105.355 456.127ZM126.022 443.96L136.355 437.877L133.311 432.706L122.978 438.79L126.022 443.96ZM146.689 431.794L157.022 425.71L153.978 420.54L143.645 426.623L146.689 431.794ZM167.355 419.627L177.689 413.544L174.645 408.373L164.311 414.456L167.355 419.627ZM188.022 407.46L198.355 401.377L195.311 396.206L184.978 402.29L188.022 407.46ZM208.689 395.294L219.022 389.21L215.978 384.04L205.645 390.123L208.689 395.294ZM229.355 383.127L234.522 380.085L231.478 374.915L226.311 377.956L229.355 383.127ZM235.318 375.595L231.646 371.127L227.01 374.936L230.682 379.405L235.318 375.595ZM224.302 362.189L216.959 353.252L212.323 357.061L219.666 365.998L224.302 362.189ZM209.615 344.314L202.271 335.377L197.635 339.186L204.979 348.123L209.615 344.314ZM194.927 326.439L187.584 317.502L182.948 321.311L190.291 330.248L194.927 326.439ZM180.24 308.564L172.896 299.627L168.26 303.436L175.604 312.373L180.24 308.564ZM165.552 290.689L158.209 281.752L153.573 285.561L160.916 294.498L165.552 290.689ZM150.865 272.814L143.521 263.877L138.885 267.686L146.229 276.623L150.865 272.814ZM136.177 254.939L128.834 246.002L124.198 249.811L131.541 258.748L136.177 254.939ZM121.49 237.064L117.818 232.595L113.182 236.405L116.854 240.873L121.49 237.064ZM118.354 235.424L120.193 229.746L114.485 227.897L112.646 233.576L118.354 235.424ZM123.872 218.389L127.55 207.032L121.842 205.183L118.164 216.54L123.872 218.389ZM131.229 195.674L134.908 184.317L129.2 182.468L125.521 193.826L131.229 195.674ZM138.586 172.96L142.265 161.603L136.557 159.754L132.878 171.111L138.586 172.96ZM145.943 150.246L149.622 138.889L143.914 137.04L140.235 148.397L145.943 150.246ZM153.3 127.532L156.979 116.174L151.271 114.326L147.592 125.683L153.3 127.532ZM160.658 104.817L164.336 93.4601L158.628 91.6113L154.95 102.968L160.658 104.817ZM168.015 82.103L169.854 76.4244L164.146 74.5756L162.307 80.2541L168.015 82.103Z" fill="url(#paint0_linear_108_216)"/>
<path d="M220.359 41.8541H215.383C214.345 33.6692 210.616 26.0615 204.782 20.2276C198.948 14.3936 191.34 10.6644 183.155 9.62645V4.65046C183.155 3.41708 182.665 2.23422 181.793 1.36209C180.921 0.489957 179.738 0 178.505 0C177.271 0 176.088 0.489957 175.216 1.36209C174.344 2.23422 173.854 3.41708 173.854 4.65046V9.62645C165.669 10.6644 158.062 14.3936 152.228 20.2276C146.394 26.0615 142.664 33.6692 141.626 41.8541H136.65C135.417 41.8541 134.234 42.3441 133.362 43.2162C132.49 44.0884 132 45.2712 132 46.5046C132 47.738 132.49 48.9208 133.362 49.793C134.234 50.6651 135.417 51.1551 136.65 51.1551H141.626C142.664 59.34 146.394 66.9477 152.228 72.7816C158.062 78.6156 165.669 82.3448 173.854 83.3827V88.3587C173.854 89.5921 174.344 90.775 175.216 91.6471C176.088 92.5192 177.271 93.0092 178.505 93.0092C179.738 93.0092 180.921 92.5192 181.793 91.6471C182.665 90.775 183.155 89.5921 183.155 88.3587V83.3827C191.34 82.3448 198.948 78.6156 204.782 72.7816C210.616 66.9477 214.345 59.34 215.383 51.1551H220.359C221.592 51.1551 222.775 50.6651 223.647 49.793C224.519 48.9208 225.009 47.738 225.009 46.5046C225.009 45.2712 224.519 44.0884 223.647 43.2162C222.775 42.3441 221.592 41.8541 220.359 41.8541ZM178.505 74.4073C172.986 74.4073 167.591 72.7709 163.003 69.7049C158.414 66.6389 154.838 62.2811 152.726 57.1825C150.614 52.084 150.061 46.4736 151.138 41.061C152.215 35.6484 154.872 30.6766 158.774 26.7744C162.677 22.8721 167.648 20.2146 173.061 19.138C178.474 18.0613 184.084 18.6139 189.183 20.7258C194.281 22.8377 198.639 26.4141 201.705 31.0027C204.771 35.5912 206.407 40.986 206.407 46.5046C206.407 53.9049 203.468 61.002 198.235 66.2348C193.002 71.4676 185.905 74.4073 178.505 74.4073ZM178.505 32.5532C175.745 32.5532 173.048 33.3714 170.754 34.9044C168.459 36.4374 166.671 38.6163 165.615 41.1656C164.559 43.7149 164.283 46.5201 164.821 49.2264C165.36 51.9327 166.688 54.4186 168.639 56.3697C170.591 58.3208 173.077 59.6496 175.783 60.1879C178.489 60.7262 181.294 60.4499 183.844 59.394C186.393 58.338 188.572 56.5499 190.105 54.2556C191.638 51.9613 192.456 49.2639 192.456 46.5046C192.456 42.8045 190.986 39.2559 188.37 36.6395C185.753 34.0231 182.205 32.5532 178.505 32.5532ZM178.505 51.1551C177.585 51.1551 176.686 50.8823 175.921 50.3713C175.156 49.8603 174.56 49.134 174.208 48.2842C173.856 47.4345 173.764 46.4994 173.943 45.5973C174.123 44.6952 174.566 43.8666 175.216 43.2162C175.867 42.5658 176.695 42.1229 177.597 41.9435C178.499 41.764 179.434 41.8561 180.284 42.2081C181.134 42.5601 181.86 43.1562 182.371 43.9209C182.882 44.6857 183.155 45.5848 183.155 46.5046C183.155 47.738 182.665 48.9208 181.793 49.793C180.921 50.6651 179.738 51.1551 178.505 51.1551Z" fill="#FF006E"/>
<defs>
<linearGradient id="paint0_linear_108_216" x1="140" y1="75.5" x2="140" y2="487" gradientUnits="userSpaceOnUse">
<stop stop-color="#4F10A8"/>
<stop offset="1" stop-color="#A27CD7"/>
</linearGradient>
</defs>
</svg>
